PathFileType	4	(X/Y/Z)	..\data\SUBJ01\static\static.trc
DataRate	CameraRate	NumFrames	NumMarkers	Units	OrigDataRate	OrigDataStartFrame	OrigNumFrames
100.000000	100.000000	4	33	mm	100.000000	30	82
Frame#	Time	LFHD			RFHD			LBHD			RBHD			C7			T10			CLAV			STRN			LSHO			LELB			LWRA			LWRB			LFIN			RSHO			RELB			RWRA			RWRB			RFIN			LASI			RASI			SACR			LTHI			LKNE			LTIB			LANK			LHEE			LTOE			RTHI			RKNE			RTIB			RANK			RHEE			RTOE			
		X1	Y1	Z1	X2	Y2	Z2	X3	Y3	Z3	X4	Y4	Z4	X5	Y5	Z5	X6	Y6	Z6	X7	Y7	Z7	X8	Y8	Z8	X9	Y9	Z9	X10	Y10	Z10	X11	Y11	Z11	X12	Y12	Z12	X13	Y13	Z13	X14	Y14	Z14	X15	Y15	Z15	X16	Y16	Z16	X17	Y17	Z17	X18	Y18	Z18	X19	Y19	Z19	X20	Y20	Z20	X21	Y21	Z21	X22	Y22	Z22	X23	Y23	Z23	X24	Y24	Z24	X25	Y25	Z25	X26	Y26	Z26	X27	Y27	Z27	X28	Y28	Z28	X29	Y29	Z29	X30	Y30	Z30	X31	Y31	Z31	X32	Y32	Z32	X33	Y33	Z33	

31	0.3	-130.7882385253907	1572.063720703125	-206.2626342773438	-159.8706970214844	1541.169311523438	-88.14938354492189	-270.0500488281251	1480.95751953125	-246.9874725341797	-297.6785888671876	1456.049682617188	-119.445785522461	-316.4979553222657	1368.886352539063	-174.3103179931641	-369.0030517578126	1144.146728515625	-182.3182067871094	-164.0158386230469	1278.125610351563	-184.4376678466797	-96.24703216552737	1125.208129882813	-181.0087585449219	-240.3436126708985	1315.848022460938	-351.3632812500001	-159.2696990966797	1091.131225585938	-509.2170715332032	-49.16350555419923	879.9857177734377	-566.2897338867189	-48.72809219360353	913.9761352539065	-623.8157348632814	-19.58968353271485	810.7850341796877	-618.4665527343751	-230.2591552734376	1308.274536132813	-7.641990661621096	-200.5361938476563	1091.634399414063	176.199203491211	-155.9017181396485	847.2290039062502	238.6758575439454	-155.6998596191407	895.6212158203127	303.0902099609376	-126.1211776733399	788.739196777344	290.8297424316407	-153.8391876220703	885.333435058594	-315.2336425781251	-157.5489501953125	888.5526123046877	-33.55372619628907	-330.1614074707032	886.2694091796877	-172.8237457275391	-247.1866455078126	619.7111816406251	-383.5018310546876	-236.2271423339844	438.830780029297	-301.9111022949219	-274.3909912109376	200.1344299316407	-331.9300231933594	-256.7760314941407	67.22623443603517	-270.2131347656251	-314.7920227050782	52.89442825317384	-228.8920898437501	-148.300277709961	49.15839767456056	-244.1958923339844	-219.8914337158204	599.8646240234376	12.27830696105957	-224.9723663330079	445.5770874023439	-52.26436996459962	-246.9144439697266	190.0643157958985	-27.9127311706543	-268.7092285156251	67.81556701660158	-85.46582031250001	-317.1530761718751	59.25556564331056	-142.7255401611328	-154.9262084960938	47.6378517150879	-95.7247772216797	
32	0.31	-130.8017272949219	1571.958740234375	-206.2672576904297	-159.6628112792969	1541.142822265625	-88.16545867919923	-270.1238403320313	1480.919067382813	-246.9511413574219	-297.6876525878907	1456.11474609375	-119.334716796875	-316.6051940917969	1368.896118164063	-174.2649993896485	-369.0632629394532	1144.11474609375	-182.304916381836	-164.0876770019532	1278.137084960938	-184.3802032470703	-96.23044586181643	1125.279418945313	-181.0616302490235	-240.4502716064454	1315.8369140625	-351.3985595703126	-159.3612670898438	1091.261474609375	-509.3798828125001	-49.163631439209	880.181091308594	-566.5493164062501	-48.69779586791994	914.125183105469	-624.2835083007814	-19.68656730651856	810.9832153320315	-618.8185424804689	-229.9834136962891	1308.293579101563	-7.846895694732668	-200.5266265869141	1091.692138671875	176.2899475097657	-155.4174194335938	847.3140869140627	239.4273223876954	-155.8065643310547	895.6929931640627	303.2786560058594	-126.2103424072266	788.737731933594	290.8935241699219	-153.7802124023438	885.3098754882815	-315.2931213378907	-157.5852813720703	888.5804443359377	-33.52500915527344	-330.1331787109376	886.2282714843752	-172.8482208251953	-247.3420410156251	619.8688964843751	-383.5350952148438	-236.2314910888672	438.8503723144532	-301.9305114746094	-274.3825073242188	199.9862213134766	-331.9225769042969	-256.7715148925782	67.1962356567383	-270.2159423828126	-314.7217102050782	52.90637207031251	-228.8480834960938	-148.2881927490235	49.1461639404297	-244.1927032470704	-219.9383087158204	599.9358520507814	12.32309341430664	-225.0113220214844	445.5945434570314	-52.23898696899415	-246.8884277343751	190.0166168212891	-27.94689750671387	-268.7212524414063	67.78191375732423	-85.49456024169923	-317.0558166503907	59.15795898437501	-142.7147064208985	-154.8798522949219	47.68775939941407	-95.75241088867189	
33	0.32	-130.8070373535157	1571.939453125	-206.2746582031251	-159.5899353027344	1541.1396484375	-88.08062744140626	-270.1365051269532	1480.932006835938	-246.9073181152344	-297.6873779296876	1456.115234375	-119.3302993774414	-316.5873718261719	1368.8466796875	-174.2307586669922	-369.0463562011719	1144.090698242188	-182.3281707763672	-164.0367889404297	1278.119873046875	-184.4239654541016	-96.33317565917972	1125.258056640625	-181.1072540283203	-240.6486968994141	1315.561767578125	-351.5382385253907	-159.0187683105469	1091.1875	-510.0854492187501	-49.22750854492189	880.2470703125002	-566.7999877929689	-48.75204467773439	914.3728027343752	-624.5596923828126	-19.6977710723877	811.152526855469	-619.0377197265626	-230.2217712402344	1308.20947265625	-7.592289447784426	-200.4850158691407	1091.742431640625	176.3628234863282	-156.058837890625	847.243835449219	239.1232910156251	-155.7581634521485	895.6877441406252	303.3946228027344	-126.2977600097657	788.7842407226565	290.7955932617188	-153.7662200927735	885.2817382812502	-315.2690734863282	-157.5216979980469	888.560974121094	-33.57161712646485	-330.1112060546876	886.2164306640627	-172.9000396728516	-247.4701232910157	619.8711547851564	-383.4556884765626	-236.2368774414063	438.7972412109376	-301.9600524902344	-274.3960876464844	199.9920043945313	-331.8157653808594	-256.7973022460938	67.16165161132814	-270.2488403320313	-314.7707824707032	52.90756607055665	-228.9095764160157	-148.3042297363282	49.1230812072754	-244.186508178711	-220.0922241210938	600.0713500976564	12.30204010009766	-225.0168762207032	445.5958862304689	-52.24552536010744	-246.9864654541016	190.0252532958985	-27.92778968811036	-268.6906127929688	67.83817291259767	-85.5140838623047	-317.0378112792969	59.12232589721681	-142.7127990722657	-154.7860717773438	47.6500587463379	-95.78332519531251	
34	0.33	-130.8121490478516	1572.011962890625	-206.2916107177735	-159.5565948486328	1541.11865234375	-88.12634277343751	-270.1285095214844	1480.975463867188	-246.9264373779297	-297.6227416992188	1456.095092773438	-119.2761840820313	-316.6673583984376	1368.869262695313	-174.2132720947266	-369.0415039062501	1144.05908203125	-182.3702545166016	-164.0701293945313	1278.156005859375	-184.3932037353516	-96.33254241943362	1125.368530273438	-181.1132507324219	-240.6392059326172	1315.94677734375	-351.5379028320313	-158.9979553222657	1091.326416015625	-510.2546691894532	-49.26698303222658	880.4473876953127	-567.0043945312501	-48.94031906127931	914.4878540039065	-624.6885375976564	-19.75666046142578	811.3347167968752	-619.2025756835939	-229.9857940673829	1308.2177734375	-7.774546146392824	-200.6338653564454	1091.718017578125	176.4976348876953	-156.288558959961	847.3211059570315	239.0777587890626	-155.8706359863282	895.8116455078127	303.4894104003907	-126.3768310546875	788.7271118164065	290.8405151367188	-153.7642974853516	885.3457031250002	-315.2886962890626	-157.5346984863282	888.5638427734377	-33.56843566894532	-330.1087341308594	886.1813964843752	-172.9190216064453	-247.4938201904297	619.8388061523439	-383.4127197265626	-236.2472839355469	438.773406982422	-301.9363403320313	-274.4980468750001	200.015853881836	-331.8314819335938	-256.8655395507813	67.17676544189455	-270.2470092773438	-314.7739868164063	52.93408966064455	-228.915756225586	-148.309066772461	49.12216186523439	-244.1879272460938	-220.1577301025391	600.0327758789064	12.26363468170166	-224.9868774414063	445.5668334960939	-52.27124786376955	-246.9926757812501	190.023422241211	-27.92494010925294	-268.7112426757813	67.76671600341798	-85.52354431152345	-317.0337219238282	59.13204193115236	-142.7118377685547	-154.8194732666016	47.64705276489259	-95.80966186523439	
